<?xml version="1.0" encoding="UTF-8"?>
<svg version="1.1" xmlns="http://www.w3.org/2000/svg" width="402" height="149">
<path d="M0 0 C132.66 0 265.32 0 402 0 C402 49.17 402 98.34 402 149 C269.34 149 136.68 149 0 149 C0 99.83 0 50.66 0 0 Z " fill="#090303" transform="translate(0,0)"/>
<path d="M0 0 C8.63869936 -0.73209317 16.67256322 1.53540377 23.99267578 6.29589844 C30.44413071 10.41891056 35.37707551 10.37690381 42.875 9.875 C52.70479716 9.5267001 58.37176981 10.44315045 66 17 C67.92816122 18.08914231 67.92816122 18.08914231 69.875 18.9375 C74.78880591 21.27789003 79.33144718 24.22684748 83.93359375 27.1171875 C86.30209745 28.57147895 88.64948914 29.87410492 91.125 31.125 C94.65784861 33.4290317 95.69348511 35.00360152 97 39 C97.73705474 44.28395582 96.81404369 47.53452222 94 52 C92.46955789 55.10472501 90.98128527 58.22702511 89.5 61.35546875 C88 64 88 64 85 66 C84.01 58.08 84.01 58.08 83 50 C73.80328626 48.16065725 65.09845557 47.67815777 57 53 C54.23076627 55.19718544 52.26306167 57.39687124 51.66796875 61.0234375 C51.59811556 64.43989375 51.91747567 67.752427 53 71 C57.09003859 72.14982602 61.03177051 72.11094256 65.25 72.0625 C65.99507812 72.05798828 66.74015625 72.05347656 67.5078125 72.04882812 C69.3385764 72.03709246 71.16929873 72.0191585 73 72 C73.66 69.36 74.32 66.72 75 64 C75.66 64.33 76.32 64.66 77 65 C77.65822532 82.18699437 77.65822532 82.18699437 72.5 88.5625 C68.75091868 92.21785428 66.10360897 92.58344892 60.984375 92.5390625 C52.24322743 90.96016412 44.45098533 83.84041291 37.70703125 78.34765625 C34.44805118 75.77477725 32.09560586 75.8257189 28 76 C27.67 76.33 27.34 76.66 27 77 C25.15928285 77.07625526 23.31815397 77.14704931 21.47631836 77.18823242 C7.73284711 77.5591229 -2.50022785 81.87521646 -12.5 91.375 C-12.995 91.91125 -13.49 92.4475 -14 93 C-17 92 -17 92 -18.6875 89.75 C-23.94569158 83.49701542 -31.12478498 80.60106435 -39 79 C-44.21129957 78.55388817 -49.40703189 78.51078321 -54.6328125 78.48828125 C-56.12069143 78.47140255 -57.60855638 78.4532481 -59.09640503 78.43388367 C-62.97932564 78.38672326 -66.86218956 78.35669579 -70.74530029 78.33044434 C-74.72093906 78.30046568 -78.69638304 78.25399563 -82.671875 78.20898438 C-90.44781927 78.1233386 -98.22377831 78.05582304 -106 78 C-103.45474716 75.42124992 -100.95807065 73.10461296 -98.0234375 70.9765625 C-97.27457275 70.43290039 -96.52570801 69.88923828 -95.75415039 69.32910156 C-94.96903076 68.76674805 -94.18391113 68.20439453 -93.375 67.625 C-92.16928345 66.7582666 -92.16928345 66.7582666 -90.93920898 65.87402344 C-67.53365352 49.18242158 -42.70916472 51.3558317 -15.07104492 55.72460938 C-12.85257499 56.06590581 -12.85257499 56.06590581 -10 56 C-22.54372142 51.78598385 -35.00016895 48.47477187 -48 46 C-48 45.67 -48 45.34 -48 45 C-24.67460596 44.65289592 -3.52768664 46.58055563 19 53 C12.18436478 48.77413257 5.30228323 46.18390943 -2.375 43.9375 C-3.53298096 43.59460937 -4.69096191 43.25171875 -5.8840332 42.8984375 C-18.39754778 39.35466811 -31.10320259 37.51130745 -44 36 C-44 35.34 -44 34.68 -44 34 C-40.36011478 32.05117394 -36.71209737 30.11806798 -33.0625 28.1875 C-32.04091797 27.64029297 -31.01933594 27.09308594 -29.96679688 26.52929688 C-16.71398776 19.54299175 -5.9756082 17.81306453 9 18 C6.6899639 13.57652661 4.48218664 9.34893812 1.125 5.625 C0.42375 4.75875 -0.2775 3.8925 -1 3 C-0.67 2.01 -0.34 1.02 0 0 Z " fill="#F9F9F8" transform="translate(286,2)"/>
<path d="M0 0 C3.67685711 3.07727369 5.85019977 5.41211752 6.3125 10.3125 C6 14 6 14 4.5 16.9375 C1.66707033 19.27466698 -0.13726771 19.6575886 -3.7890625 19.43359375 C-6.99206203 18.80544366 -9.73201854 17.54887523 -12.62890625 16.0703125 C-21.67136362 11.98854426 -33.63816135 10.85307678 -43.1484375 14.0625 C-48.81256845 17.26926952 -53.27008007 21.69698387 -57 27 C-57.43441406 27.6084375 -57.86882813 28.216875 -58.31640625 28.84375 C-64.12520265 39.0445632 -61.71432124 53.6230091 -58.9375 64.4375 C-58.73898438 65.14068359 -58.54046875 65.84386719 -58.3359375 66.56835938 C-56.60727471 72.7274761 -56.60727471 72.7274761 -58 76 C-58.495 76.804375 -58.99 77.60875 -59.5 78.4375 C-61.01771781 81.03026793 -61.57847139 83.04929976 -62 86 C-65.48502002 81.67406566 -67.07203353 77.05714574 -68.9375 71.875 C-69.28941406 70.89740723 -69.64132813 69.91981445 -70.00390625 68.91259766 C-76.0595394 51.65123965 -80.64014734 34.55656277 -73 17 C-66.84453946 6.73051014 -57.64121417 0.08191125 -47 -5 C-46.30519531 -5.34289062 -45.61039063 -5.68578125 -44.89453125 -6.0390625 C-31.07483551 -11.75940078 -11.95923839 -8.3396734 0 0 Z " fill="#F8F7F7" transform="translate(81,16)"/>
<path d="M0 0 C4.19508924 -0.10028716 8.38950905 -0.17212116 12.58544922 -0.21972656 C14.00712262 -0.23961011 15.42871683 -0.26672727 16.85009766 -0.30175781 C27.263934 -0.55163109 37.83507721 -0.15191411 46.5625 6.3125 C50.24477686 10.37244628 51.748057 14.02044789 52.4375 19.4375 C51.694421 25.48828618 49.44786549 30.05913653 44.75 34 C43.8425 34.66 42.935 35.32 42 36 C43.69258044 39.89864034 46.25988548 43.06607958 48.875 46.375 C52.10687215 50.47957353 55.15322841 54.61729584 58 59 C51.67467854 60.15312363 45.1861056 61.22631822 39 59 C35.05787611 55.57686214 32.40073184 51.33829626 29.80615234 46.84643555 C29.30035645 45.99090088 28.79456055 45.13536621 28.2734375 44.25390625 C27.64574463 43.06776733 27.64574463 43.06776733 27.00537109 41.85766602 C24.34562664 39.02467864 24.34562664 39.02467864 16 39 C16 45.6 16 52.2 16 59 C11.05 59 6.1 59 1 59 C0.93108747 55.06688101 0.87137093 51.13530185 0.83520508 47.2019043 C0.81271667 45.20672299 0.77459802 43.21173787 0.73632812 41.21679688 C0.72666016 39.96318359 0.71699219 38.70957031 0.70703125 37.41796875 C0.6913208 36.26063232 0.67561035 35.1032959 0.65942383 33.91088867 C1 31 1 31 2.18505859 29.12207031 C4.65780533 27.59331809 6.43339033 27.63111502 9.33203125 27.62890625 C10.37810547 27.61150391 11.42417969 27.59410156 12.50195312 27.57617188 C14.69725308 27.56710574 16.89257234 27.56185595 19.08789062 27.56054688 C27.34505931 27.41958302 27.34505931 27.41958302 34 23 C34.9168022 19.45678447 34.9168022 19.45678447 34 16 C30.15799094 12.94439039 26.99064768 12.59450766 22.16796875 12.48828125 C20.87568359 12.45283203 19.58339844 12.41738281 18.25195312 12.38085938 C16.89714066 12.35776319 15.54232282 12.33498065 14.1875 12.3125 C12.81311883 12.27930239 11.43876829 12.24481047 10.06445312 12.20898438 C6.70971766 12.12658736 3.35524096 12.05740605 0 12 C0 8.04 0 4.08 0 0 Z " fill="#D06C26" transform="translate(213,88)"/>
<path d="M0 0 C1.22763565 0.00212242 1.22763565 0.00212242 2.48007202 0.00428772 C5.09873075 0.00989335 7.71730454 0.02244677 10.3359375 0.03515625 C12.10937377 0.04017053 13.88281137 0.04473356 15.65625 0.04882812 C20.00784532 0.05986461 24.359377 0.077133 28.7109375 0.09765625 C28.7109375 3.72765625 28.7109375 7.35765625 28.7109375 11.09765625 C27.84291504 11.11747559 26.97489258 11.13729492 26.08056641 11.15771484 C22.86367483 11.23575497 19.64716705 11.32244506 16.43066406 11.41503906 C15.03785178 11.45334952 13.64493985 11.48819884 12.25195312 11.51953125 C10.25107442 11.56513532 8.25051604 11.62417248 6.25 11.68359375 C5.04553223 11.71501465 3.84106445 11.74643555 2.60009766 11.77880859 C-0.4150643 11.80680851 -0.4150643 11.80680851 -2.2890625 14.09765625 C-2.62239583 17.09765625 -2.62239583 17.09765625 -2.2890625 20.09765625 C0.38942296 22.77614171 1.85064611 22.40269631 5.59375 22.51171875 C6.76035156 22.55039063 7.92695313 22.5890625 9.12890625 22.62890625 C10.96388672 22.6753125 10.96388672 22.6753125 12.8359375 22.72265625 C14.06699219 22.76132813 15.29804688 22.8 16.56640625 22.83984375 C19.61443126 22.93435615 22.66244612 23.01991119 25.7109375 23.09765625 C25.7109375 26.72765625 25.7109375 30.35765625 25.7109375 34.09765625 C23.94105469 34.14664063 22.17117187 34.195625 20.34765625 34.24609375 C18.03123391 34.32111957 15.71482845 34.39666748 13.3984375 34.47265625 C11.64756836 34.5190625 11.64756836 34.5190625 9.86132812 34.56640625 C8.18393555 34.62441406 8.18393555 34.62441406 6.47265625 34.68359375 C5.44100342 34.71501465 4.40935059 34.74643555 3.34643555 34.77880859 C0.48250514 34.92440254 0.48250514 34.92440254 -2.2890625 37.09765625 C-2.2890625 39.73765625 -2.2890625 42.37765625 -2.2890625 45.09765625 C13.5509375 45.59265625 13.5509375 45.59265625 29.7109375 46.09765625 C29.7109375 50.05765625 29.7109375 54.01765625 29.7109375 58.09765625 C24.55148877 58.19686174 19.39260061 58.26928271 14.23242188 58.31738281 C12.47874271 58.33744335 10.72512997 58.36469876 8.97167969 58.39941406 C6.44449432 58.44817927 3.91819659 58.47068017 1.390625 58.48828125 C0.61226288 58.50892639 -0.16609924 58.52957153 -0.9680481 58.55084229 C-6.18585878 58.55297169 -9.1976019 57.62363042 -13.2890625 54.09765625 C-15.02441928 51.25674235 -15.54768639 49.10022495 -15.59545898 45.79150391 C-15.61144638 44.95027985 -15.62743378 44.10905579 -15.64390564 43.24234009 C-15.64926834 42.34123505 -15.65463104 41.44013 -15.66015625 40.51171875 C-15.66918472 39.57717865 -15.6782132 38.64263855 -15.68751526 37.67977905 C-15.70200907 35.70452066 -15.71090234 33.72921436 -15.71459961 31.75390625 C-15.72649382 28.74005826 -15.77568558 25.72825967 -15.82617188 22.71484375 C-15.83563687 20.79297871 -15.84287154 18.87110114 -15.84765625 16.94921875 C-15.86718857 16.05216217 -15.88672089 15.15510559 -15.90684509 14.23086548 C-15.87567756 9.88460887 -15.6695114 6.99566453 -12.87915039 3.54443359 C-8.69144502 -0.41156445 -5.5139321 -0.03561792 0 0 Z " fill="#D36D26" transform="translate(124.2890625,88.90234375)"/>
<path d="M0 0 C1.15680267 0.00212242 1.15680267 0.00212242 2.3369751 0.00428772 C4.79239838 0.00987091 7.24772942 0.0224203 9.703125 0.03515625 C11.37109243 0.04017342 13.03906129 0.04473595 14.70703125 0.04882812 C18.78909787 0.05983484 22.87109581 0.07708789 26.953125 0.09765625 C26.953125 3.72765625 26.953125 7.35765625 26.953125 11.09765625 C26.08510254 11.1227124 25.21708008 11.14776855 24.32275391 11.17358398 C21.10599337 11.26865109 17.88939651 11.36788828 14.67285156 11.4699707 C13.2799991 11.51331471 11.88709369 11.55499021 10.49414062 11.5949707 C8.49335849 11.65268557 6.49276641 11.71687494 4.4921875 11.78125 C3.28771973 11.81790771 2.08325195 11.85456543 0.84228516 11.89233398 C-1.98683867 11.90818612 -1.98683867 11.90818612 -4.046875 13.09765625 C-4.21364782 16.51421649 -4.21364782 16.51421649 -4.046875 20.09765625 C-1.36838954 22.77614171 0.09283361 22.40269631 3.8359375 22.51171875 C5.00253906 22.55039063 6.16914062 22.5890625 7.37109375 22.62890625 C9.20607422 22.6753125 9.20607422 22.6753125 11.078125 22.72265625 C12.30917969 22.76132813 13.54023437 22.8 14.80859375 22.83984375 C17.85661876 22.93435615 20.90463362 23.01991119 23.953125 23.09765625 C23.953125 26.72765625 23.953125 30.35765625 23.953125 34.09765625 C22.78740967 34.12738525 22.78740967 34.12738525 21.59814453 34.15771484 C18.09111809 34.25272634 14.58470706 34.36250184 11.078125 34.47265625 C9.24314453 34.5190625 9.24314453 34.5190625 7.37109375 34.56640625 C6.20449219 34.60507813 5.03789063 34.64375 3.8359375 34.68359375 C2.75715332 34.71501465 1.67836914 34.74643555 0.56689453 34.77880859 C-2.20449154 34.84441947 -2.20449154 34.84441947 -4.046875 37.09765625 C-4.29691464 40.63944223 -4.29691464 40.63944223 -4.046875 44.09765625 C-2.16055957 45.98397168 1.09513193 45.34030917 3.61328125 45.4140625 C4.27774765 45.4348436 4.94221405 45.45562469 5.6268158 45.47703552 C7.75631043 45.54259283 9.88593168 45.6014441 12.015625 45.66015625 C13.45639347 45.70333564 14.89714899 45.74694974 16.33789062 45.79101562 C19.8761654 45.89828018 23.41458369 45.99952996 26.953125 46.09765625 C26.953125 50.05765625 26.953125 54.01765625 26.953125 58.09765625 C21.7753657 58.19673753 16.59816153 58.26922431 11.41967773 58.31738281 C9.65916325 58.33746411 7.89871518 58.36473504 6.13842773 58.39941406 C3.60383698 58.44808737 1.07013005 58.4706593 -1.46484375 58.48828125 C-2.24836716 58.50892639 -3.03189056 58.52957153 -3.8391571 58.55084229 C-7.5272997 58.55234727 -9.78211694 58.25901991 -12.95825195 56.32324219 C-17.18322672 51.8212118 -17.39998536 47.96693194 -17.56640625 41.9296875 C-17.59288742 41.13543869 -17.61936859 40.34118988 -17.64665222 39.52287292 C-17.69925948 37.84278727 -17.7468572 36.16253831 -17.78979492 34.48217773 C-17.85868414 31.93569389 -17.95480164 29.39121409 -18.05273438 26.84570312 C-18.64137843 8.48935648 -18.64137843 8.48935648 -13.69067383 2.44067383 C-9.76860991 -0.76373336 -4.82419102 -0.03342433 0 0 Z " fill="#D46E27" transform="translate(36.046875,88.90234375)"/>
<path d="M0 0 C14.19 0 28.38 0 43 0 C43 3.63 43 7.26 43 11 C38.38 11 33.76 11 29 11 C29 26.51 29 42.02 29 58 C24.05 58 19.1 58 14 58 C14 42.49 14 26.98 14 11 C9.38 11 4.76 11 0 11 C0 7.37 0 3.74 0 0 Z " fill="#D66F27" transform="translate(162,89)"/>
<path d="M0 0 C5.46782663 3.56044525 9.02057306 8.45588809 10.7578125 14.7421875 C11.241791 17.14844682 11.62931588 19.57370397 12 22 C6.39 22 0.78 22 -5 22 C-5.5878125 19.89625 -5.5878125 19.89625 -6.1875 17.75 C-7.5985932 13.49665746 -9.06314341 11.36211395 -13 9 C-18.62994973 7.12335009 -24.09029508 7.06250849 -29.4375 9.6875 C-33.73927625 13.56959076 -34.85714364 16.2857182 -36 22 C-41.61 22 -47.22 22 -53 22 C-52.73282934 13.58412428 -50.28009445 8.12428802 -44.17578125 2.2421875 C-30.73978118 -8.60472533 -14.62383595 -8.50955971 0 0 Z " fill="#CE6B26" transform="translate(327,93)"/>
<path d="M0 0 C4.95 0 9.9 0 15 0 C15 15.18 15 30.36 15 46 C19.62 46 24.24 46 29 46 C29 49.96 29 53.92 29 58 C19.43 58 9.86 58 0 58 C0 38.86 0 19.72 0 0 Z " fill="#D46E26" transform="translate(72,89)"/>
<path d="M0 0 C5.61 0 11.22 0 17 0 C17.37125 1.216875 17.7425 2.43375 18.125 3.6875 C19.4713675 7.1487096 20.92461215 9.87483718 23.9921875 12.15625 C28.39694495 14.00727648 33.35638205 13.74997867 38 13 C42.4800002 10.7888411 44.51895105 8.34183567 47 4 C47.33 2.68 47.66 1.36 48 0 C53.28 0 58.56 0 64 0 C63.72315401 8.72064859 60.87525174 14.22672857 54.625 20.3125 C48.88992337 23.99933498 43.92197519 26.53853499 37 27 C36.1028125 27.06316406 35.205625 27.12632812 34.28125 27.19140625 C24.54887613 27.58019954 16.74764212 25.59910778 9.125 19.375 C4.84344593 15.26255579 1.83847944 10.66325575 0 5 C0 3.35 0 1.7 0 0 Z " fill="#D06C26" transform="translate(274,121)"/>
<path d="M0 0 C0.84525742 0.00142502 1.69051483 0.00285004 2.56138611 0.00431824 C3.51900345 0.00124161 4.47662079 -0.00183502 5.46325684 -0.00500488 C6.49973862 0.00218063 7.5362204 0.00936615 8.60411072 0.01676941 C9.66431931 0.01722763 10.72452789 0.01768585 11.81686401 0.01815796 C14.06049212 0.02118245 16.30411809 0.0290746 18.54771423 0.04142761 C21.99562456 0.05968083 25.44326651 0.06193737 28.89122009 0.06169128 C31.06635264 0.0666064 33.24148336 0.07243469 35.41661072 0.07926941 C36.45511673 0.08038223 37.49362274 0.08149506 38.56359863 0.0826416 C39.51806381 0.08902145 40.47252899 0.09540131 41.45591736 0.10197449 C42.30037918 0.10578629 43.144841 0.10959808 44.01489258 0.11352539 C45.94395447 0.24723816 45.94395447 0.24723816 46.94395447 1.24723816 C47.01720615 4.10991383 47.03633652 6.94795715 47.00645447 9.80973816 C47.00194275 10.61604675 46.99743103 11.42235535 46.99278259 12.25309753 C46.98095964 14.25117572 46.96302361 16.24921599 46.94395447 18.24723816 C44.56323665 19.43759707 43.09078067 19.38021962 40.43418884 19.39250183 C39.49981995 19.39888168 38.56545105 19.40526154 37.60276794 19.41183472 C36.591297 19.41294754 35.57982605 19.41406036 34.53770447 19.41520691 C33.5020636 19.41853531 32.46642273 19.42186371 31.3993988 19.42529297 C29.20706121 19.43036152 27.01471588 19.43270132 24.82237244 19.43254089 C21.45782359 19.43472914 18.09360158 19.45289058 14.72911072 19.47184753 C12.60280976 19.47478104 10.47650724 19.47676612 8.35020447 19.47770691 C6.83299805 19.48848518 6.83299805 19.48848518 5.28514099 19.4994812 C4.35077209 19.49640457 3.4164032 19.49332794 2.45372009 19.49015808 C1.62924377 19.4915831 0.80476746 19.49300812 -0.04469299 19.49447632 C-2.05604553 19.24723816 -2.05604553 19.24723816 -4.05604553 17.24723816 C-4.25453624 14.70188675 -4.33456328 12.29007057 -4.30604553 9.74723816 C-4.31377991 9.05758972 -4.32151428 8.36794128 -4.32948303 7.65739441 C-4.30164629 0.51727021 -4.30164629 0.51727021 0 0 Z " fill="#C16424" transform="translate(355.05604553222656,127.75276184082031)"/>
<path d="M0 0 C0.84827362 0.00444122 1.69654724 0.00888245 2.57052612 0.01345825 C3.53137115 0.01360931 4.49221619 0.01376038 5.48217773 0.01391602 C6.52179657 0.02423859 7.56141541 0.03456116 8.63253784 0.04519653 C9.6951181 0.04802643 10.75769836 0.05085632 11.85247803 0.05377197 C15.25584033 0.06499264 18.6589422 0.09010066 22.06222534 0.11550903 C24.36560697 0.12553639 26.6689927 0.13466266 28.97238159 0.14285278 C34.6274188 0.1649381 40.28230347 0.19843415 45.93722534 0.24050903 C45.93722534 0.90050903 45.93722534 1.56050903 45.93722534 2.24050903 C43.95722534 2.24050903 41.97722534 2.24050903 39.93722534 2.24050903 C39.27722534 3.56050903 38.61722534 4.88050903 37.93722534 6.24050903 C35.62722534 5.25050903 33.31722534 4.26050903 30.93722534 3.24050903 C32.25722534 4.89050903 33.57722534 6.54050903 34.93722534 8.24050903 C33.73341086 10.73412474 32.48293812 12.92193986 30.93722534 15.24050903 C30.27722534 15.24050903 29.61722534 15.24050903 28.93722534 15.24050903 C28.93722534 14.58050903 28.93722534 13.92050903 28.93722534 13.24050903 C26.29722534 13.24050903 23.65722534 13.24050903 20.93722534 13.24050903 C20.93722534 12.58050903 20.93722534 11.92050903 20.93722534 11.24050903 C23.24722534 11.24050903 25.55722534 11.24050903 27.93722534 11.24050903 C27.93722534 10.25050903 27.93722534 9.26050903 27.93722534 8.24050903 C25.62722534 8.24050903 23.31722534 8.24050903 20.93722534 8.24050903 C20.93722534 7.25050903 20.93722534 6.26050903 20.93722534 5.24050903 C23.24722534 5.24050903 25.55722534 5.24050903 27.93722534 5.24050903 C27.93722534 4.58050903 27.93722534 3.92050903 27.93722534 3.24050903 C24.30722534 3.57050903 20.67722534 3.90050903 16.93722534 4.24050903 C16.93722534 3.58050903 16.93722534 2.92050903 16.93722534 2.24050903 C13.69116992 2.58830069 12.9626352 3.20986774 10.81222534 5.80300903 C9.88410034 7.00957153 9.88410034 7.00957153 8.93722534 8.24050903 C8.27722534 8.24050903 7.61722534 8.24050903 6.93722534 8.24050903 C6.29785034 7.43613403 5.65847534 6.63175903 4.99972534 5.80300903 C3.12686602 3.00330171 3.12686602 3.00330171 -0.06277466 2.24050903 C-0.06277466 7.19050903 -0.06277466 12.14050903 -0.06277466 17.24050903 C1.6503894 17.11482544 1.6503894 17.11482544 3.39816284 16.98660278 C17.63381206 16.05553531 31.69952918 16.49973225 45.93722534 17.24050903 C45.60722534 17.90050903 45.27722534 18.56050903 44.93722534 19.24050903 C38.28035721 19.29110063 31.6235384 19.32619663 24.96652222 19.35037231 C22.70055285 19.36044762 20.43459653 19.37410822 18.16867065 19.39138794 C14.91701033 19.41556914 11.66552147 19.42697666 8.41378784 19.43582153 C6.88717026 19.45130539 6.88717026 19.45130539 5.32971191 19.46710205 C4.38888763 19.46725311 3.44806335 19.46740417 2.47872925 19.46755981 C1.23296616 19.47422165 1.23296616 19.47422165 -0.03796387 19.48101807 C-2.06277466 19.24050903 -2.06277466 19.24050903 -4.06277466 17.24050903 C-4.26126536 14.69515762 -4.3412924 12.28334145 -4.31277466 9.74050903 C-4.32050903 9.0508606 -4.32824341 8.36121216 -4.33621216 7.65066528 C-4.30834341 0.50233093 -4.30834341 0.50233093 0 0 Z " fill="#C36624" transform="translate(355.0627746582031,127.75949096679688)"/>
<path d="M0 0 C0 5.61 0 11.22 0 17 C-8.91 16.67 -17.82 16.34 -27 16 C-27 15.67 -27 15.34 -27 15 C-24.36 15 -21.72 15 -19 15 C-19 14.34 -19 13.68 -19 13 C-21.31 13 -23.62 13 -26 13 C-26 12.67 -26 12.34 -26 12 C-23.36 12 -20.72 12 -18 12 C-18 12.66 -18 13.32 -18 14 C-17.34 14 -16.68 14 -16 14 C-14.23537317 10.91190305 -14 9.76687864 -14 6 C-14.93283296 3.79932579 -14.93283296 3.79932579 -16 2 C-15.236875 2.165 -14.47375 2.33 -13.6875 2.5 C-10.96403764 3.09145396 -10.96403764 3.09145396 -8 3 C-7.67 2.34 -7.34 1.68 -7 1 C-2.2 0 -2.2 0 0 0 Z " fill="#B65F22" transform="translate(402,129)"/>
<path d="M0 0 C3.14057701 -0.31238421 4.66772974 -0.20380688 7.39453125 1.46875 C18.93675033 11.16495989 18.93675033 11.16495989 23 16 C23 16.66 23 17.32 23 18 C23.639375 18.2475 24.27875 18.495 24.9375 18.75 C28.99988351 20.40811572 32.99724906 22.2035584 37 24 C35.4375 24.69921875 35.4375 24.69921875 33 25 C30.53219685 24.03674193 28.32883233 23.03781659 26 21.8125 C25.07574219 21.35520508 25.07574219 21.35520508 24.1328125 20.88867188 C20.46057735 19.00921247 17.86691171 16.91765351 15 14 C13.39125 13.7215625 13.39125 13.7215625 11.75 13.4375 C6.60109124 12.27592406 4.31291271 7.5325045 1.50390625 3.43359375 C0 1 0 1 0 0 Z " fill="#191615" transform="translate(291,6)"/>
<path d="M0 0 C4.75 1.1875 4.75 1.1875 7 4 C7 4.66 7 5.32 7 6 C7.7425 5.175 8.485 4.35 9.25 3.5 C12 1 12 1 16 1 C16 5.29 16 9.58 16 14 C15.01 14 14.02 14 13 14 C13 11.69 13 9.38 13 7 C12.34 7 11.68 7 11 7 C10.34 8.32 9.68 9.64 9 11 C8.01 10.67 7.02 10.34 6 10 C5.67 9.34 5.34 8.68 5 8 C4.67 9.98 4.34 11.96 4 14 C2.68 14 1.36 14 0 14 C0 9.38 0 4.76 0 0 Z " fill="#201208" transform="translate(355,130)"/>
<path d="M0 0 C6.81368683 0.59143774 12.94390464 2.33574962 19.4375 4.4375 C20.44232422 4.75009766 21.44714844 5.06269531 22.48242188 5.38476562 C23.43568359 5.68962891 24.38894531 5.99449219 25.37109375 6.30859375 C26.23661865 6.58501709 27.10214355 6.86144043 27.99389648 7.14624023 C30 8 30 8 31 10 C30.06317383 9.87153687 30.06317383 9.87153687 29.10742188 9.74047852 C26.23834739 9.34733461 23.3691746 8.95491256 20.5 8.5625 C19.51773438 8.42779297 18.53546875 8.29308594 17.5234375 8.15429688 C14.6827495 7.76606951 11.84141862 7.3828367 9 7 C8.28972656 6.90066162 7.57945312 6.80132324 6.84765625 6.69897461 C1.57319822 5.98859426 -3.68872132 5.68633871 -9 5.4375 C-9.87011719 5.39431641 -10.74023438 5.35113281 -11.63671875 5.30664062 C-13.75768219 5.20175782 -15.87882433 5.10049925 -18 5 C-18 4.67 -18 4.34 -18 4 C-12.06 3.67 -6.12 3.34 0 3 C0 2.01 0 1.02 0 0 Z " fill="#0F0B0A" transform="translate(249,50)"/>
<path d="M0 0 C1.1446875 0.2475 1.1446875 0.2475 2.3125 0.5 C6.15760484 1.21536834 9.21800993 0.81772758 13 0 C12.46375 0.721875 11.9275 1.44375 11.375 2.1875 C9.66916921 4.90155402 9.66916921 4.90155402 10.6875 7.625 C12.03979263 10.14965488 12.03979263 10.14965488 14 13 C11.75 13.25 11.75 13.25 9 13 C6.6875 11 6.6875 11 5 9 C4.34 10.32 3.68 11.64 3 13 C1.68 12.67 0.36 12.34 -1 12 C0.32 10.35 1.64 8.7 3 7 C2.690625 6.401875 2.38125 5.80375 2.0625 5.1875 C1 3 1 3 0 0 Z " fill="#170C06" transform="translate(386,131)"/>
<path d="M0 0 C3.3 0 6.6 0 10 0 C10 0.66 10 1.32 10 2 C7.69 2 5.38 2 3 2 C3 2.99 3 3.98 3 5 C5.31 5 7.62 5 10 5 C10 5.99 10 6.98 10 8 C7.69 8 5.38 8 3 8 C3 8.99 3 9.98 3 11 C5.31 11 7.62 11 10 11 C10 11.66 10 12.32 10 13 C8.52093108 13.02689216 7.04172517 13.04634621 5.5625 13.0625 C4.32693359 13.07990234 4.32693359 13.07990234 3.06640625 13.09765625 C1 13 1 13 0 12 C-0.07244053 9.98035801 -0.08377188 7.95832876 -0.0625 5.9375 C-0.05347656 4.83277344 -0.04445313 3.72804687 -0.03515625 2.58984375 C-0.02355469 1.73519531 -0.01195312 0.88054687 0 0 Z " fill="#231309" transform="translate(373,131)"/>
<path d="M0 0 C2.39287238 0.51659594 4.68372399 1.16908644 7.01171875 1.92578125 C7.67558594 2.1371875 8.33945312 2.34859375 9.0234375 2.56640625 C14.58806028 4.50781623 19.78829102 7.21773368 25.01171875 9.92578125 C20.89881415 11.29674945 17.98038869 9.89048002 14.01171875 8.61328125 C7.39624817 6.5654511 0.87910911 4.91955048 -5.98828125 3.92578125 C-4.3061128 1.43909745 -3.1518593 -0.1176529 0 0 Z " fill="#1D1B1A" transform="translate(281.98828125,45.07421875)"/>
<path d="M0 0 C0.66 0.33 1.32 0.66 2 1 C0.68 2.32 -0.64 3.64 -2 5 C16.48 5.33 34.96 5.66 54 6 C54 6.33 54 6.66 54 7 C33.54 7 13.08 7 -8 7 C-5.31382584 4.31382584 -3.02632489 2.16166063 0 0 Z " fill="#D1CDCA" transform="translate(188,73)"/>
<path d="M0 0 C2.97 0 5.94 0 9 0 C7.02 0.99 7.02 0.99 5 2 C5.66 2.66 6.32 3.32 7 4 C7 4.99 7 5.98 7 7 C7.680625 7.763125 8.36125 8.52625 9.0625 9.3125 C11 12 11 12 10.75 15.3125 C10.5025 16.199375 10.255 17.08625 10 18 C8.25906529 15.73678488 6.6356923 13.44766251 5.0625 11.0625 C3.07129199 7.97633961 3.07129199 7.97633961 0.6875 5.3125 C0.130625 4.549375 -0.42625 3.78625 -1 3 C-0.67 2.01 -0.34 1.02 0 0 Z " fill="#DBD9D7" transform="translate(286,2)"/>
<path d="M0 0 C8.58 0 17.16 0 26 0 C25.01 1.65 24.02 3.3 23 5 C15.23216563 4.20736384 7.6370361 2.58110513 0 1 C0 0.67 0 0.34 0 0 Z " fill="#DBD9D7" transform="translate(238,47)"/>
<path d="M0 0 C3.83736322 0.95934081 4.59660228 1.23609263 7 4 C6.690625 4.53625 6.38125 5.0725 6.0625 5.625 C4.82172561 8.3984957 4.4090325 11.00042837 4 14 C2.68 14 1.36 14 0 14 C0 9.38 0 4.76 0 0 Z " fill="#251409" transform="translate(355,130)"/>
<path d="M0 0 C10.89 0 21.78 0 33 0 C33 0.33 33 0.66 33 1 C31.02 1 29.04 1 27 1 C26.34 2.32 25.68 3.64 25 5 C24.49726563 4.51015625 23.99453125 4.0203125 23.4765625 3.515625 C20.13827536 1.47263539 17.16150761 1.63393846 13.375 1.75 C12.694375 1.75515625 12.01375 1.7603125 11.3125 1.765625 C7.52913518 1.7895526 7.52913518 1.7895526 4 3 C4 2.34 4 1.68 4 1 C2.68 0.67 1.36 0.34 0 0 Z " fill="#E37528" transform="translate(368,129)"/>
<path d="M0 0 C4.95 0 9.9 0 15 0 C14.01 0.33 13.02 0.66 12 1 C12.66 2.32 13.32 3.64 14 5 C9.9472484 5.98248524 6.16138263 6.08159574 2 6 C2 5.01 2 4.02 2 3 C4.31 3 6.62 3 9 3 C9 2.34 9 1.68 9 1 C6.03 1 3.06 1 0 1 C0 0.67 0 0.34 0 0 Z " fill="#C16524" transform="translate(374,130)"/>
<path d="M0 0 C1.24716797 0.02030273 1.24716797 0.02030273 2.51953125 0.04101562 C4.55497066 0.07610941 6.59007291 0.12990772 8.625 0.1875 C4.88264681 2.63739101 1.18274581 2.41836143 -3.125 2.3125 C-3.82238281 2.30347656 -4.51976562 2.29445313 -5.23828125 2.28515625 C-6.95066958 2.26169888 -8.66288004 2.22583104 -10.375 2.1875 C-10.705 2.8475 -11.035 3.5075 -11.375 4.1875 C-13.4375 5.3125 -13.4375 5.3125 -15.375 6.1875 C-15.375 5.1975 -15.375 4.2075 -15.375 3.1875 C-10.10776905 -0.05977345 -5.97550061 -0.18584093 0 0 Z " fill="#141110" transform="translate(50.375,27.8125)"/>
<path d="M0 0 C-3.12719046 1.04239682 -4.29258274 0.97104316 -7.44921875 0.44140625 C-8.29677734 0.30283203 -9.14433594 0.16425781 -10.01757812 0.02148438 C-10.89865234 -0.12998047 -11.77972656 -0.28144531 -12.6875 -0.4375 C-13.58017578 -0.58509766 -14.47285156 -0.73269531 -15.39257812 -0.88476562 C-17.59621137 -1.25007381 -19.798506 -1.62204888 -22 -2 C-22 -2.33 -22 -2.66 -22 -3 C-14.28419387 -6.25778481 -7.17720375 -3.83232425 0 0 Z " fill="#3C3835" transform="translate(280,59)"/>
<path d="M0 0 C4.85963179 0.60745397 8.7405518 2.72758967 13 5 C13 5.33 13 5.66 13 6 C5.78287462 6.48929664 5.78287462 6.48929664 2 4.125 C0 2 0 2 0 0 Z " fill="#33302E" transform="translate(333,20)"/>
<path d="M0 0 C0.66 0.33 1.32 0.66 2 1 C2 1.66 2 2.32 2 3 C2.639375 3.2475 3.27875 3.495 3.9375 3.75 C7.99988351 5.40811572 11.99724906 7.2035584 16 9 C14.453125 9.71484375 14.453125 9.71484375 12 10 C9.46142115 8.94608774 7.15504473 7.86034426 4.75 6.5625 C4.1003125 6.22412109 3.450625 5.88574219 2.78125 5.53710938 C1.18185506 4.70213113 -0.40985859 3.85246886 -2 3 C-1.34 2.67 -0.68 2.34 0 2 C0 1.34 0 0.68 0 0 Z " fill="#534F4B" transform="translate(312,21)"/>
<path d="M0 0 C1.32 0 2.64 0 4 0 C5.34112371 2.68224741 5.37601209 5.07820209 5.625 8.0625 C5.72039062 9.14660156 5.81578125 10.23070312 5.9140625 11.34765625 C5.94242187 12.22292969 5.97078125 13.09820312 6 14 C5 15 5 15 2.4375 15.0625 C1.633125 15.041875 0.82875 15.02125 0 15 C0.99 14.67 1.98 14.34 3 14 C3 9.71 3 5.42 3 1 C2.01 0.67 1.02 0.34 0 0 Z " fill="#9E531F" transform="translate(368,130)"/>
<path d="M0 0 C1.23016164 0.62303935 2.45967138 1.24737545 3.6875 1.875 C0.44562614 2.95562462 -0.20959861 2.83905231 -3.32421875 1.87890625 C-4.08154297 1.65009766 -4.83886719 1.42128906 -5.61914062 1.18554688 C-6.40482422 0.93869141 -7.19050781 0.69183594 -8 0.4375 C-8.79728516 0.19451172 -9.59457031 -0.04847656 -10.41601562 -0.29882812 C-12.38389534 -0.89979738 -14.34852495 -1.5113905 -16.3125 -2.125 C-15.714375 -2.269375 -15.11625 -2.41375 -14.5 -2.5625 C-8.19475993 -4.18384745 -5.79236326 -2.87571392 0 0 Z " fill="#4D4845" transform="translate(303.3125,53.125)"/>
<path d="M0 0 C2.31 0.33 4.62 0.66 7 1 C7.33 2.32 7.66 3.64 8 5 C5.03 5 2.06 5 -1 5 C-1.33 4.34 -1.66 3.68 -2 3 C-1.01 2.67 -0.02 2.34 1 2 C0.67 1.34 0.34 0.68 0 0 Z " fill="#0D0B0B" transform="translate(273,43)"/>
<path d="M0 0 C0.33 0 0.66 0 1 0 C1 3.96 1 7.92 1 12 C0.34 12 -0.32 12 -1 12 C-1 9.69 -1 7.38 -1 5 C-1.99 5.33 -2.98 5.66 -4 6 C-2.84826645 3.53199953 -1.95216435 1.95216435 0 0 Z " fill="#0A0602" transform="translate(369,132)"/>
<path d="M0 0 C0.75 2.125 0.75 2.125 1 4 C-1.86724686 3.42655063 -2.8614515 3.1385485 -5 1 C-6.98821313 0.60235737 -8.98944339 0.26224651 -11 0 C-11 -0.33 -11 -0.66 -11 -1 C-3.11538462 -2.51627219 -3.11538462 -2.51627219 0 0 Z " fill="#24211F" transform="translate(311,19)"/>
<path d="M0 0 C2.97 0 5.94 0 9 0 C8.360625 0.433125 7.72125 0.86625 7.0625 1.3125 C4.73253997 2.91239177 4.73253997 2.91239177 4 6 C2.68 5.34 1.36 4.68 0 4 C0 2.68 0 1.36 0 0 Z " fill="#E3E1E0" transform="translate(286,2)"/>
<path d="M0 0 C0.66 0.33 1.32 0.66 2 1 C1.57847656 1.42410156 1.15695312 1.84820312 0.72265625 2.28515625 C-3.23246072 6.51945795 -4.7628617 9.19011172 -5 15 C-5.33 15 -5.66 15 -6 15 C-6.7230444 8.13107822 -6.7230444 8.13107822 -4.6640625 4.91015625 C-3.16989578 3.19502121 -1.64681923 1.56839927 0 0 Z " fill="#363330" transform="translate(343,54)"/>
<path d="M0 0 C0.91007812 0.00902344 1.82015625 0.01804688 2.7578125 0.02734375 C3.45648438 0.03894531 4.15515625 0.05054688 4.875 0.0625 C4.875 0.3925 4.875 0.7225 4.875 1.0625 C2.895 1.0625 0.915 1.0625 -1.125 1.0625 C-1.785 2.3825 -2.445 3.7025 -3.125 5.0625 C-4.445 3.7425 -5.765 2.4225 -7.125 1.0625 C-4.60024538 -0.19987731 -2.81299534 -0.03606404 0 0 Z " fill="#D26C26" transform="translate(396.125,128.9375)"/>
<path d="M0 0 C2.97 0 5.94 0 9 0 C9 0.66 9 1.32 9 2 C6.69 2 4.38 2 2 2 C2 2.99 2 3.98 2 5 C1.34 5 0.68 5 0 5 C0 3.35 0 1.7 0 0 Z " fill="#090502" transform="translate(374,131)"/>
<path d="M0 0 C0.66 0.66 1.32 1.32 2 2 C4.32275177 2.40047444 6.65739357 2.7397104 9 3 C9 3.66 9 4.32 9 5 C6.03 5 3.06 5 0 5 C0 3.35 0 1.7 0 0 Z " fill="#070302" transform="translate(374,139)"/>
<path d="M0 0 C3.96 0 7.92 0 12 0 C12 0.99 12 1.98 12 3 C6.06 2.01 6.06 2.01 0 1 C0 0.67 0 0.34 0 0 Z " fill="#2E2B29" transform="translate(352,50)"/>
<path d="M0 0 C0.53625 0.226875 1.0725 0.45375 1.625 0.6875 C0.4184375 0.873125 0.4184375 0.873125 -0.8125 1.0625 C-1.658125 1.26875 -2.50375 1.475 -3.375 1.6875 C-3.705 2.3475 -4.035 3.0075 -4.375 3.6875 C-6.4375 4.8125 -6.4375 4.8125 -8.375 5.6875 C-8.375 4.6975 -8.375 3.7075 -8.375 2.6875 C-2.95961538 -0.38942308 -2.95961538 -0.38942308 0 0 Z " fill="#34302E" transform="translate(43.375,28.3125)"/>
<path d="M0 0 C4.95 0 9.9 0 15 0 C11 3 11 3 9 3 C9 2.34 9 1.68 9 1 C6.03 1 3.06 1 0 1 C0 0.67 0 0.34 0 0 Z " fill="#7D431B" transform="translate(374,130)"/>
<path d="M0 0 C0.66 1.32 1.32 2.64 2 4 C1.34 4.66 0.68 5.32 0 6 C-2.125 5.625 -2.125 5.625 -4 5 C-2.68 3.35 -1.36 1.7 0 0 Z " fill="#241409" transform="translate(389,138)"/>
<path d="M0 0 C2.64 0.33 5.28 0.66 8 1 C6 3 6 3 2.875 3.125 C1.451875 3.063125 1.451875 3.063125 0 3 C0 2.01 0 1.02 0 0 Z " fill="#100C0C" transform="translate(249,50)"/>
<path d="M0 0 C0.33 0.66 0.66 1.32 1 2 C0.01 3.485 0.01 3.485 -1 5 C-3.1640625 5.29296875 -3.1640625 5.29296875 -5.625 5.1875 C-6.44226563 5.16042969 -7.25953125 5.13335937 -8.1015625 5.10546875 C-9.04128906 5.05326172 -9.04128906 5.05326172 -10 5 C-9.67 4.34 -9.34 3.68 -9 3 C-6.66752239 2.66073053 -4.33414529 2.32759934 -2 2 C-1.34 1.34 -0.68 0.68 0 0 Z " fill="#201C1A" transform="translate(85,32)"/>
</svg>
